<?xml version="1.0" encoding="UTF-8"?>
<!-- Generator: Adobe Illustrator 22.1.0, SVG Export Plug-In . SVG Version: 6.00 Build 0)  -->
<svg version="1.1" id="Logo_1_" xmlns="http://www.w3.org/2000/svg" xmlns:xlink="http://www.w3.org/1999/xlink" x="0px" y="0px" viewBox="0 0 163 38" style="enable-background:new 0 0 163 38;" xml:space="preserve">
<style type="text/css">
	.st0{fill-rule:evenodd;clip-rule:evenodd;fill:#FFFFFF;}
</style>
<g id="constrau">
	<g>
		<path class="st0" d="M11,23h20v-6H17V9h14V3H11V23z M6,3H0v31h31v-6H6V3z M50.7,9.8h-3.1c-1.5,0-2.6,0.4-3.4,1.2    c-0.8,0.8-1.2,1.9-1.2,3.4v8.9c0,1.5,0.4,2.6,1.2,3.4c0.8,0.8,1.9,1.2,3.4,1.2h3.1c1.5,0,2.6-0.4,3.4-1.2c0.8-0.8,1.2-1.9,1.2-3.4    V22c0-0.4-0.2-0.6-0.6-0.6h-2.4c-0.4,0-0.6,0.2-0.6,0.6v1.1c0,0.6-0.1,1-0.4,1.3c-0.3,0.3-0.7,0.4-1.3,0.4h-1.9    c-0.6,0-1-0.1-1.2-0.4c-0.3-0.3-0.4-0.7-0.4-1.3v-8.5c0-0.6,0.1-1,0.4-1.3c0.3-0.3,0.7-0.4,1.2-0.4h1.9c0.6,0,1,0.1,1.3,0.4    c0.3,0.3,0.4,0.7,0.4,1.3v1.1c0,0.4,0.2,0.6,0.6,0.6h2.4c0.4,0,0.6-0.2,0.6-0.6v-1.3c0-1.5-0.4-2.6-1.2-3.4    C53.3,10.2,52.2,9.8,50.7,9.8z M65.9,9.8h-3.1c-1.5,0-2.6,0.4-3.4,1.2c-0.8,0.8-1.2,1.9-1.2,3.4v8.9c0,1.5,0.4,2.6,1.2,3.4    c0.8,0.8,1.9,1.2,3.4,1.2h3.1c1.5,0,2.6-0.4,3.4-1.2c0.8-0.8,1.2-1.9,1.2-3.4v-8.9c0-1.5-0.4-2.6-1.2-3.4    C68.5,10.2,67.3,9.8,65.9,9.8z M66.9,23.1c0,0.6-0.1,1-0.4,1.3c-0.3,0.3-0.7,0.4-1.3,0.4h-2c-0.6,0-1-0.1-1.3-0.4    c-0.2-0.3-0.4-0.7-0.4-1.3v-8.5c0-0.6,0.1-1,0.4-1.3c0.2-0.3,0.7-0.4,1.3-0.4h2c0.6,0,1,0.1,1.3,0.4c0.3,0.3,0.4,0.7,0.4,1.3V23.1    z M86,9.8h-2.3c-0.4,0-0.6,0.2-0.6,0.6v10.4H83l-5.7-10.6c-0.1-0.3-0.4-0.4-0.8-0.4h-2.1c-0.4,0-0.6,0.2-0.6,0.6v16.8    c0,0.4,0.2,0.6,0.6,0.6h2.3c0.4,0,0.6-0.2,0.6-0.6V16.9h0.1l5.6,10.4c0.2,0.4,0.5,0.6,0.9,0.6h2c0.4,0,0.6-0.2,0.6-0.6V10.4    C86.6,10,86.4,9.8,86,9.8z M99.8,18c-1.2-0.5-2.6-0.8-4.2-1c-1.5-0.1-2.3-0.6-2.3-1.5v-0.5c0-0.8,0.1-1.4,0.4-1.7    c0.3-0.3,0.8-0.4,1.6-0.4h1.1c0.7,0,1.3,0.1,1.5,0.4c0.3,0.3,0.4,0.8,0.4,1.5V15c0,0.4,0.2,0.6,0.6,0.6h2.4c0.4,0,0.6-0.2,0.6-0.6    v-0.5c0-1.5-0.4-2.6-1.2-3.4c-0.8-0.8-2-1.2-3.4-1.2h-2.8c-1.5,0-2.6,0.4-3.4,1.2c-0.8,0.8-1.2,1.9-1.2,3.4v1    c0,1.2,0.2,2.1,0.7,2.8c0.4,0.7,1,1.2,1.6,1.5c0.7,0.3,1.4,0.5,2.1,0.6c0.8,0.2,1.5,0.3,2.1,0.3c0.7,0.1,1.2,0.2,1.6,0.5    c0.4,0.3,0.7,0.7,0.7,1.2v0.3c0,0.8-0.1,1.3-0.4,1.6c-0.3,0.3-0.8,0.4-1.5,0.4h-1.3c-0.7,0-1.3-0.1-1.5-0.4    c-0.3-0.3-0.4-0.7-0.4-1.5v-0.2c0-0.4-0.2-0.6-0.6-0.6h-2.4c-0.4,0-0.6,0.2-0.6,0.6v0.6c0,1.5,0.4,2.6,1.2,3.4    c0.8,0.8,2,1.2,3.4,1.2h3.1c1.5,0,2.6-0.4,3.4-1.2c0.8-0.8,1.2-1.9,1.2-3.4v-1c0-1.1-0.2-2-0.7-2.8C101,18.8,100.5,18.3,99.8,18z     M115,9.8h-10.6c-0.4,0-0.6,0.2-0.6,0.6v1.9c0,0.4,0.2,0.6,0.6,0.6h3.2c0.2,0,0.3,0.1,0.3,0.3v14c0,0.4,0.2,0.6,0.6,0.6h2.4    c0.4,0,0.6-0.2,0.6-0.6v-14c0-0.2,0.1-0.3,0.3-0.3h3.2c0.4,0,0.6-0.2,0.6-0.6v-1.9C115.6,10,115.4,9.8,115,9.8z M127.1,20.9v-0.1    c1.7-0.7,2.5-2.1,2.5-4.2v-2.2c0-1.5-0.4-2.6-1.2-3.4c-0.8-0.8-2-1.2-3.4-1.2h-6.7c-0.4,0-0.6,0.2-0.6,0.6v16.8    c0,0.4,0.2,0.6,0.6,0.6h2.4c0.4,0,0.6-0.2,0.6-0.6v-5.7c0-0.2,0.1-0.3,0.3-0.3h1.9l2.8,6c0.1,0.2,0.2,0.4,0.4,0.5    c0.1,0.1,0.4,0.1,0.7,0.1h2.3c0.5,0,0.6-0.2,0.5-0.7L127.1,20.9z M126.1,16.8c0,0.6-0.1,1-0.4,1.2c-0.3,0.3-0.7,0.4-1.3,0.4h-2.7    c-0.2,0-0.3-0.1-0.3-0.3v-4.8c0-0.2,0.1-0.3,0.3-0.3h2.7c0.6,0,1,0.1,1.3,0.4c0.3,0.3,0.4,0.7,0.4,1.3V16.8z M141.7,10.4    c-0.1-0.4-0.4-0.6-0.8-0.6h-3.7c-0.4,0-0.7,0.2-0.8,0.6l-4.4,16.8c-0.1,0.4,0,0.6,0.3,0.6h2.7c0.2,0,0.3,0,0.4-0.1    c0.1-0.1,0.1-0.2,0.2-0.5l0.8-3.1h5.5l0.8,3.1c0,0.2,0.1,0.4,0.2,0.5c0.1,0.1,0.2,0.1,0.4,0.1h2.7c0.3,0,0.4-0.2,0.3-0.6    L141.7,10.4z M137,21.3l2-8.1h0.1l2,8.1H137z M160.2,9.8h-2.4c-0.4,0-0.6,0.2-0.6,0.6v12.7c0,0.6-0.1,1-0.4,1.3    c-0.3,0.3-0.7,0.4-1.3,0.4h-1.9c-0.6,0-1-0.1-1.2-0.4c-0.3-0.3-0.4-0.7-0.4-1.3V10.4c0-0.4-0.2-0.6-0.6-0.6h-2.4    c-0.4,0-0.6,0.2-0.6,0.6v12.9c0,1.5,0.4,2.6,1.2,3.4c0.8,0.8,1.9,1.2,3.4,1.2h3.1c1.5,0,2.6-0.4,3.4-1.2c0.8-0.8,1.2-1.9,1.2-3.4    V10.4C160.8,10,160.6,9.8,160.2,9.8z"/>
	</g>
</g>
</svg>